STARTFONT 2.1
FONT -FontForge-Aurebesh_english-Book-R-Normal--14-100-100-100-P-116-ISO10646-1
SIZE 10 100 100
FONTBOUNDINGBOX 20 12 0 -2
COMMENT "Generated by fontforge, http://fontforge.sourceforge.net"
STARTPROPERTIES 39
FOUNDRY "FontForge"
FAMILY_NAME "Aurebesh_english"
WEIGHT_NAME "Book"
SLANT "R"
SETWIDTH_NAME "Normal"
ADD_STYLE_NAME ""
PIXEL_SIZE 14
POINT_SIZE 100
RESOLUTION_X 100
RESOLUTION_Y 100
SPACING "P"
AVERAGE_WIDTH 116
CHARSET_REGISTRY "ISO10646"
CHARSET_ENCODING "1"
FONTNAME_REGISTRY ""
CHARSET_COLLECTIONS "ISO10646-1"
FONT_NAME "Aurebesh_english-Regular"
FACE_NAME "Aurebesh_english Regular"
FONT_VERSION "001.005"
FONT_ASCENT 11
FONT_DESCENT 3
UNDERLINE_POSITION -2
UNDERLINE_THICKNESS 1
X_HEIGHT 8
CAP_HEIGHT 8
DEFAULT_CHAR 1
RAW_ASCENT 800
RAW_DESCENT 200
NORM_SPACE 7
RELATIVE_WEIGHT 40
RELATIVE_SETWIDTH 50
SUPERSCRIPT_X 0
SUPERSCRIPT_Y 6
SUPERSCRIPT_SIZE 9
SUBSCRIPT_X 0
SUBSCRIPT_Y 1
SUBSCRIPT_SIZE 9
AVG_LOWERCASE_WIDTH 134
AVG_UPPERCASE_WIDTH 134
ENDPROPERTIES
CHARS 82
STARTCHAR .null
ENCODING 0
SWIDTH 490 0
DWIDTH 7 0
BBX 1 1 0 0
BITMAP
00
ENDCHAR
STARTCHAR CR
ENCODING 13
SWIDTH 490 0
DWIDTH 7 0
BBX 1 1 0 0
BITMAP
00
ENDCHAR
STARTCHAR space
ENCODING 32
SWIDTH 490 0
DWIDTH 7 0
BBX 1 1 0 0
BITMAP
00
ENDCHAR
STARTCHAR exclam
ENCODING 33
SWIDTH 263 0
DWIDTH 4 0
BBX 2 9 1 0
BITMAP
C0
C0
C0
C0
C0
C0
00
C0
C0
ENDCHAR
STARTCHAR quotedbl
ENCODING 34
SWIDTH 493 0
DWIDTH 7 0
BBX 5 4 1 6
BITMAP
D8
D8
D8
48
ENDCHAR
STARTCHAR numbersign
ENCODING 35
SWIDTH 815 0
DWIDTH 11 0
BBX 10 9 1 0
BITMAP
3600
3600
FFC0
FFC0
3600
FFC0
FFC0
3700
3700
ENDCHAR
STARTCHAR ampersand
ENCODING 38
SWIDTH 894 0
DWIDTH 13 0
BBX 11 9 1 0
BITMAP
FC00
FC00
CC00
FF00
FF00
FF00
CF00
FF80
FFE0
ENDCHAR
STARTCHAR quotesingle
ENCODING 39
SWIDTH 264 0
DWIDTH 4 0
BBX 2 4 1 6
BITMAP
C0
C0
C0
80
ENDCHAR
STARTCHAR parenleft
ENCODING 40
SWIDTH 341 0
DWIDTH 5 0
BBX 3 11 1 -1
BITMAP
E0
E0
C0
C0
C0
C0
C0
C0
C0
E0
E0
ENDCHAR
STARTCHAR parenright
ENCODING 41
SWIDTH 341 0
DWIDTH 5 0
BBX 3 11 1 -1
BITMAP
E0
E0
60
60
60
60
60
60
60
E0
E0
ENDCHAR
STARTCHAR comma
ENCODING 44
SWIDTH 265 0
DWIDTH 4 0
BBX 2 4 1 -2
BITMAP
C0
C0
C0
80
ENDCHAR
STARTCHAR hyphen
ENCODING 45
SWIDTH 496 0
DWIDTH 7 0
BBX 5 3 1 3
BITMAP
F8
F8
F8
ENDCHAR
STARTCHAR period
ENCODING 46
SWIDTH 265 0
DWIDTH 4 0
BBX 2 2 1 0
BITMAP
C0
C0
ENDCHAR
STARTCHAR slash
ENCODING 47
SWIDTH 615 0
DWIDTH 9 0
BBX 7 9 1 0
BITMAP
0E
0C
1C
18
38
30
70
60
E0
ENDCHAR
STARTCHAR zero
ENCODING 48
SWIDTH 880 0
DWIDTH 12 0
BBX 11 9 1 0
BITMAP
FFE0
FFE0
C0E0
C0E0
C0E0
C0E0
C0E0
FFE0
FFC0
ENDCHAR
STARTCHAR one
ENCODING 49
SWIDTH 417 0
DWIDTH 6 0
BBX 4 9 1 0
BITMAP
F0
F0
30
30
30
30
30
30
30
ENDCHAR
STARTCHAR two
ENCODING 50
SWIDTH 956 0
DWIDTH 13 0
BBX 12 9 1 0
BITMAP
FFE0
FFF0
C070
03F0
3FF0
7FF0
E000
FFE0
FFF0
ENDCHAR
STARTCHAR three
ENCODING 51
SWIDTH 956 0
DWIDTH 13 0
BBX 12 9 1 0
BITMAP
FFE0
FFF0
C070
07F0
0FF0
0FF0
C070
FFF0
FFE0
ENDCHAR
STARTCHAR four
ENCODING 52
SWIDTH 845 0
DWIDTH 12 0
BBX 10 9 1 0
BITMAP
70C0
60C0
E0C0
FFC0
7FC0
7FC0
00C0
00C0
00C0
ENDCHAR
STARTCHAR five
ENCODING 53
SWIDTH 887 0
DWIDTH 12 0
BBX 11 9 1 0
BITMAP
FFC0
FFE0
C000
FFC0
FFE0
7FE0
C0E0
FFE0
FFE0
ENDCHAR
STARTCHAR six
ENCODING 54
SWIDTH 882 0
DWIDTH 12 0
BBX 11 9 1 0
BITMAP
FFC0
FFE0
C0E0
FFC0
FFE0
FFE0
C0E0
FFE0
FFE0
ENDCHAR
STARTCHAR seven
ENCODING 55
SWIDTH 818 0
DWIDTH 11 0
BBX 10 9 1 0
BITMAP
FFC0
FFC0
0380
0700
0E00
1C00
1800
1800
1800
ENDCHAR
STARTCHAR eight
ENCODING 56
SWIDTH 848 0
DWIDTH 12 0
BBX 10 9 1 0
BITMAP
FFC0
FFC0
C0C0
FFC0
FFC0
FFC0
C0C0
FFC0
FFC0
ENDCHAR
STARTCHAR nine
ENCODING 57
SWIDTH 811 0
DWIDTH 11 0
BBX 10 9 1 0
BITMAP
FFC0
FFC0
C1C0
FFC0
FFC0
FFC0
0780
0F00
3C00
ENDCHAR
STARTCHAR question
ENCODING 63
SWIDTH 572 0
DWIDTH 8 0
BBX 6 9 1 0
BITMAP
F8
FC
1C
7C
7C
7C
00
60
60
ENDCHAR
STARTCHAR at
ENCODING 64
SWIDTH 881 0
DWIDTH 12 0
BBX 11 9 1 0
BITMAP
7FC0
C060
9F60
91E0
BFE0
A1E0
A1E0
C000
7E00
ENDCHAR
STARTCHAR A
ENCODING 65
SWIDTH 1045 0
DWIDTH 15 0
BBX 13 9 1 0
BITMAP
1FF0
1FF8
3818
7798
67D8
E7F8
C078
C038
C018
ENDCHAR
STARTCHAR B
ENCODING 66
SWIDTH 880 0
DWIDTH 12 0
BBX 11 9 1 0
BITMAP
FFE0
FFE0
C0C0
FFC0
FF80
FFC0
00C0
FFE0
FFE0
ENDCHAR
STARTCHAR C
ENCODING 67
SWIDTH 1047 0
DWIDTH 15 0
BBX 13 9 1 0
BITMAP
FFF8
FFF8
C000
C000
C000
E000
F000
7FF8
3FF8
ENDCHAR
STARTCHAR D
ENCODING 68
SWIDTH 1043 0
DWIDTH 15 0
BBX 13 9 1 0
BITMAP
C7F8
C7F8
CE38
C470
C060
C0C0
C1C0
FF80
FF00
ENDCHAR
STARTCHAR E
ENCODING 69
SWIDTH 883 0
DWIDTH 12 0
BBX 11 9 1 0
BITMAP
FFC0
FFE0
C0C0
C200
DE00
CC00
C000
FFE0
FFE0
ENDCHAR
STARTCHAR F
ENCODING 70
SWIDTH 883 0
DWIDTH 12 0
BBX 11 9 1 0
BITMAP
FFE0
FFE0
C000
DF00
DF80
DF00
C000
C000
C000
ENDCHAR
STARTCHAR G
ENCODING 71
SWIDTH 1047 0
DWIDTH 15 0
BBX 13 9 1 0
BITMAP
07F8
1FF8
3C00
71E0
E1F0
C1F0
C038
FFD0
FFC0
ENDCHAR
STARTCHAR H
ENCODING 72
SWIDTH 1050 0
DWIDTH 15 0
BBX 13 9 1 0
BITMAP
C018
C018
C018
CFF8
DFF8
FFF8
F018
E018
E018
ENDCHAR
STARTCHAR I
ENCODING 73
SWIDTH 263 0
DWIDTH 4 0
BBX 2 9 1 0
BITMAP
40
C0
C0
C0
C0
C0
C0
C0
C0
ENDCHAR
STARTCHAR J
ENCODING 74
SWIDTH 882 0
DWIDTH 12 0
BBX 11 9 1 0
BITMAP
01E0
01E0
00E0
00E0
80E0
70E0
3CE0
1FE0
07E0
ENDCHAR
STARTCHAR K
ENCODING 75
SWIDTH 882 0
DWIDTH 12 0
BBX 11 9 1 0
BITMAP
C0E0
C0E0
C1C0
FB80
FD00
FC00
CE00
C7E0
C3E0
ENDCHAR
STARTCHAR L
ENCODING 76
SWIDTH 884 0
DWIDTH 12 0
BBX 11 9 1 0
BITMAP
C000
C000
C000
C000
C000
C0C0
C0E0
FFC0
FF80
ENDCHAR
STARTCHAR M
ENCODING 77
SWIDTH 1042 0
DWIDTH 15 0
BBX 13 9 1 0
BITMAP
F0F8
F8F8
DDD8
CE98
C618
C618
C618
C618
C618
ENDCHAR
STARTCHAR N
ENCODING 78
SWIDTH 1047 0
DWIDTH 15 0
BBX 13 9 1 0
BITMAP
E018
F818
FC18
CE18
C718
C398
C138
C070
C020
ENDCHAR
STARTCHAR O
ENCODING 79
SWIDTH 1051 0
DWIDTH 15 0
BBX 13 9 1 0
BITMAP
0F80
1FC0
38C0
30E0
7070
E030
C038
FFF0
7FF0
ENDCHAR
STARTCHAR P
ENCODING 80
SWIDTH 884 0
DWIDTH 12 0
BBX 11 9 1 0
BITMAP
5FE0
DFC0
C0C0
FFC0
FF80
FF80
C000
C000
C000
ENDCHAR
STARTCHAR Q
ENCODING 81
SWIDTH 1042 0
DWIDTH 15 0
BBX 13 11 1 -2
BITMAP
FFF8
FFF8
C018
C018
C018
C018
C018
FFA0
FFC0
00E0
00C0
ENDCHAR
STARTCHAR R
ENCODING 82
SWIDTH 882 0
DWIDTH 12 0
BBX 11 9 1 0
BITMAP
FF80
FF80
C1C0
C5C0
DD80
CE00
C600
C7E0
C3E0
ENDCHAR
STARTCHAR S
ENCODING 83
SWIDTH 881 0
DWIDTH 12 0
BBX 11 9 1 0
BITMAP
3F80
7FE0
E0C0
FF00
FF80
FFC0
00E0
FE40
FE00
ENDCHAR
STARTCHAR T
ENCODING 84
SWIDTH 880 0
DWIDTH 12 0
BBX 11 9 1 0
BITMAP
7FE0
FFE0
C700
0E00
0C00
1C00
3800
7000
E000
ENDCHAR
STARTCHAR U
ENCODING 85
SWIDTH 1050 0
DWIDTH 15 0
BBX 13 9 1 0
BITMAP
F018
F818
D818
C018
C018
C018
C018
FFF8
FFF8
ENDCHAR
STARTCHAR V
ENCODING 86
SWIDTH 1066 0
DWIDTH 15 0
BBX 13 9 1 0
BITMAP
E078
60F0
7160
38E0
19C0
1D80
0E00
0700
0600
ENDCHAR
STARTCHAR W
ENCODING 87
SWIDTH 1505 0
DWIDTH 21 0
BBX 19 9 1 0
BITMAP
FE01E0
7F03C0
7001C0
398380
19C300
1CE700
0E6E00
067C00
063C00
ENDCHAR
STARTCHAR X
ENCODING 88
SWIDTH 1053 0
DWIDTH 15 0
BBX 13 9 1 0
BITMAP
E078
70F0
31C0
3F80
1FC0
38C0
70E0
7870
3C38
ENDCHAR
STARTCHAR Y
ENCODING 89
SWIDTH 882 0
DWIDTH 12 0
BBX 11 9 1 0
BITMAP
E3E0
67C0
7380
3B00
1F00
1E00
0C00
7C00
7800
ENDCHAR
STARTCHAR Z
ENCODING 90
SWIDTH 882 0
DWIDTH 12 0
BBX 11 9 1 0
BITMAP
FFE0
FFE0
01E0
0780
0F00
3C00
F800
E7E0
E7E0
ENDCHAR
STARTCHAR a
ENCODING 97
SWIDTH 1045 0
DWIDTH 15 0
BBX 13 9 1 0
BITMAP
1FF0
1FF8
3818
7798
67D8
E7F8
C078
C038
C018
ENDCHAR
STARTCHAR b
ENCODING 98
SWIDTH 880 0
DWIDTH 12 0
BBX 11 9 1 0
BITMAP
FFE0
FFE0
C0C0
FFC0
FF80
FFC0
00C0
FFE0
FFE0
ENDCHAR
STARTCHAR c
ENCODING 99
SWIDTH 1050 0
DWIDTH 15 0
BBX 13 9 1 0
BITMAP
FFF8
FFF8
C000
C000
C000
E000
F000
7FF8
3FF8
ENDCHAR
STARTCHAR d
ENCODING 100
SWIDTH 1051 0
DWIDTH 15 0
BBX 13 9 1 0
BITMAP
C7F8
C7F8
CE38
C470
C060
C0E0
C1C0
FF80
FF80
ENDCHAR
STARTCHAR e
ENCODING 101
SWIDTH 883 0
DWIDTH 12 0
BBX 11 9 1 0
BITMAP
FFC0
FFC0
C0E0
C200
DE00
CC00
C000
FFE0
FFE0
ENDCHAR
STARTCHAR f
ENCODING 102
SWIDTH 883 0
DWIDTH 12 0
BBX 11 9 1 0
BITMAP
FFE0
FFE0
C000
C000
DF80
DF80
C000
C000
C000
ENDCHAR
STARTCHAR g
ENCODING 103
SWIDTH 1047 0
DWIDTH 15 0
BBX 13 9 1 0
BITMAP
07F8
1FF8
3C00
79C0
E1F0
C1F0
C038
FFD0
FFC0
ENDCHAR
STARTCHAR h
ENCODING 104
SWIDTH 1045 0
DWIDTH 15 0
BBX 13 9 1 0
BITMAP
C018
C018
C018
CFF8
DFF8
FFF8
F018
F018
E018
ENDCHAR
STARTCHAR i
ENCODING 105
SWIDTH 264 0
DWIDTH 4 0
BBX 2 9 1 0
BITMAP
40
C0
C0
C0
C0
C0
C0
C0
C0
ENDCHAR
STARTCHAR j
ENCODING 106
SWIDTH 886 0
DWIDTH 12 0
BBX 11 9 1 0
BITMAP
01E0
01E0
00E0
00E0
00E0
F0E0
3CE0
1FE0
07E0
ENDCHAR
STARTCHAR k
ENCODING 107
SWIDTH 880 0
DWIDTH 12 0
BBX 11 9 1 0
BITMAP
C0E0
C0E0
C1C0
FB80
FB00
FC00
CE00
C7E0
C3E0
ENDCHAR
STARTCHAR l
ENCODING 108
SWIDTH 881 0
DWIDTH 12 0
BBX 11 9 1 0
BITMAP
C000
C000
C000
C000
C000
C040
C0E0
FFC0
FF80
ENDCHAR
STARTCHAR m
ENCODING 109
SWIDTH 1042 0
DWIDTH 15 0
BBX 13 9 1 0
BITMAP
F078
F8F8
DDD8
CE98
C618
C618
C618
C618
C618
ENDCHAR
STARTCHAR n
ENCODING 110
SWIDTH 1042 0
DWIDTH 15 0
BBX 13 9 1 0
BITMAP
E018
F018
FC18
DE18
C718
C398
C138
C070
C020
ENDCHAR
STARTCHAR o
ENCODING 111
SWIDTH 1047 0
DWIDTH 15 0
BBX 13 9 1 0
BITMAP
0F80
1FC0
38C0
30E0
7070
E030
C038
FFF0
7FF0
ENDCHAR
STARTCHAR p
ENCODING 112
SWIDTH 885 0
DWIDTH 12 0
BBX 11 9 1 0
BITMAP
5FE0
DFC0
C0C0
FFC0
FF80
FF80
C000
C000
C000
ENDCHAR
STARTCHAR q
ENCODING 113
SWIDTH 1050 0
DWIDTH 15 0
BBX 13 11 1 -2
BITMAP
FFF8
FFF8
C018
C018
C018
C018
C018
FF90
FFC0
00E0
00C0
ENDCHAR
STARTCHAR r
ENCODING 114
SWIDTH 884 0
DWIDTH 12 0
BBX 11 9 1 0
BITMAP
FF80
FF80
C1C0
C5C0
DD80
CD00
CE00
C7E0
C3E0
ENDCHAR
STARTCHAR s
ENCODING 115
SWIDTH 892 0
DWIDTH 12 0
BBX 11 9 1 0
BITMAP
3F80
7FE0
60C0
FF00
FF80
FFC0
00E0
FE40
FE00
ENDCHAR
STARTCHAR t
ENCODING 116
SWIDTH 881 0
DWIDTH 12 0
BBX 11 9 1 0
BITMAP
7FE0
FFE0
C700
4600
0E00
1C00
3800
7000
E000
ENDCHAR
STARTCHAR u
ENCODING 117
SWIDTH 1045 0
DWIDTH 15 0
BBX 13 9 1 0
BITMAP
F018
F818
D818
C018
C018
C018
C018
FFF8
FFF8
ENDCHAR
STARTCHAR v
ENCODING 118
SWIDTH 1059 0
DWIDTH 15 0
BBX 13 9 1 0
BITMAP
E0F8
60F0
7160
38E0
19C0
1D80
0E00
0700
0600
ENDCHAR
STARTCHAR w
ENCODING 119
SWIDTH 1511 0
DWIDTH 21 0
BBX 19 9 1 0
BITMAP
FE01E0
7F03C0
7001C0
398180
19C380
1CE700
0E6600
077E00
063C00
ENDCHAR
STARTCHAR x
ENCODING 120
SWIDTH 1045 0
DWIDTH 15 0
BBX 13 9 1 0
BITMAP
E078
70F0
31C0
3F80
1FC0
38C0
70E0
7870
3C38
ENDCHAR
STARTCHAR y
ENCODING 121
SWIDTH 877 0
DWIDTH 12 0
BBX 11 9 1 0
BITMAP
E3E0
67C0
7380
3B00
1F00
1E00
0C00
7C00
7800
ENDCHAR
STARTCHAR z
ENCODING 122
SWIDTH 880 0
DWIDTH 12 0
BBX 11 9 1 0
BITMAP
FFE0
FFE0
01E0
07C0
0F00
3C00
F800
E7E0
E7E0
ENDCHAR
STARTCHAR nbsp
ENCODING 160
SWIDTH 490 0
DWIDTH 7 0
BBX 1 1 0 0
BITMAP
00
ENDCHAR
STARTCHAR .notdef
ENCODING -1
SWIDTH 364 0
DWIDTH 5 0
BBX 4 9 0 0
BITMAP
F0
90
90
90
90
90
90
90
F0
ENDCHAR
STARTCHAR nonmarkingreturn
ENCODING -1
SWIDTH 333 0
DWIDTH 5 0
BBX 1 1 0 0
BITMAP
00
ENDCHAR
STARTCHAR A.ss01
ENCODING -1
SWIDTH 1045 0
DWIDTH 15 0
BBX 13 9 1 0
BITMAP
1FF0
1FF8
3818
7798
67D8
E7F8
C078
C038
C018
ENDCHAR
ENDFONT
